<svg width="156" height="155" viewBox="0 0 156 155" fill="none" xmlns="http://www.w3.org/2000/svg">
<path d="M122.221 122.926C123.326 122.926 124.221 122.03 124.221 120.926L124.221 93.4736C124.221 92.3691 125.117 91.4736 126.221 91.4736L153.972 91.4736C155.077 91.4736 155.972 92.3691 155.972 93.4736L155.972 152.788C155.972 153.893 155.077 154.788 153.972 154.788L94.6575 154.788C93.553 154.788 92.6575 153.893 92.6575 152.788L92.6575 124.926C92.6575 123.821 93.553 122.926 94.6575 122.926L122.221 122.926Z" fill="#FFFBFB"/>
<path d="M34.0936 32.0215C32.989 32.0215 32.0936 32.9169 32.0936 34.0215L32.0936 61.4736C32.0936 62.5782 31.1982 63.4736 30.0936 63.4736L2.34277 63.4736C1.23821 63.4736 0.342773 62.5782 0.342773 61.4736L0.342774 2.15899C0.342774 1.05442 1.2382 0.158995 2.34277 0.158995L61.6574 0.158996C62.762 0.158996 63.6574 1.05443 63.6574 2.159L63.6574 30.0215C63.6574 31.1261 62.762 32.0215 61.6574 32.0215L34.0936 32.0215Z" fill="#FFFBFB"/>
<path d="M124.109 33.91C124.109 32.8054 123.214 31.91 122.109 31.91H94.6572C93.5527 31.91 92.6572 31.0146 92.6572 29.91V2.15918C92.6572 1.05461 93.5527 0.15918 94.6572 0.15918H153.972C155.076 0.15918 155.972 1.05461 155.972 2.15918V61.4738C155.972 62.5784 155.076 63.4738 153.972 63.4738H126.109C125.005 63.4738 124.109 62.5784 124.109 61.4738V33.91Z" fill="#A1CCF9"/>
<path d="M32.2051 121.037C32.2051 122.142 33.1005 123.037 34.2051 123.037L61.6572 123.037C62.7618 123.037 63.6572 123.933 63.6572 125.037L63.6572 152.788C63.6572 153.893 62.7618 154.788 61.6572 154.788L2.34258 154.788C1.23801 154.788 0.342583 153.893 0.342583 152.788L0.342588 93.4734C0.342588 92.3689 1.23802 91.4734 2.34259 91.4734L30.2051 91.4734C31.3097 91.4734 32.2051 92.3689 32.2051 93.4734L32.2051 121.037Z" fill="#FFFBFB"/>
</svg>
